<svg width="250" height="250" viewBox="0 0 250 250" fill="none" xmlns="http://www.w3.org/2000/svg">
<path d="M0 25C0 11.1929 11.1929 0 25 0H225C238.807 0 250 11.1929 250 25V225C250 238.807 238.807 250 225 250H25C11.1929 250 0 238.807 0 225V25Z" fill="#071311"/>
<path d="M0 25C0 11.1929 11.1929 0 25 0H225C238.807 0 250 11.1929 250 25V225C250 238.807 238.807 250 225 250H25C11.1929 250 0 238.807 0 225V25Z" fill="url(#paint0_linear_6_33)"/>
<path d="M0 25C0 11.1929 11.1929 0 25 0H225C238.807 0 250 11.1929 250 25V225C250 238.807 238.807 250 225 250H25C11.1929 250 0 238.807 0 225V25Z" fill="url(#paint1_linear_6_33)"/>
<path d="M0 25C0 11.1929 11.1929 0 25 0H225C238.807 0 250 11.1929 250 25V225C250 238.807 238.807 250 225 250H25C11.1929 250 0 238.807 0 225V25Z" fill="url(#paint2_linear_6_33)"/>
<path d="M86.4695 103.216C85.099 98.684 87.3055 93.8775 91.8259 91.7623L94.846 90.3092C98.2245 88.7108 102.166 88.4202 105.749 89.5827L117.625 93.3123C121.822 94.6201 126.429 93.1185 128.835 89.6796C131.241 86.289 130.985 81.7844 128.221 78.6361L121.259 70.741C119.743 69.0194 118.68 67.0642 118.071 65.0162C121.735 64.2694 125.516 63.8787 129.381 63.8787H165.226C179.944 63.8787 192.765 54.972 199.245 41.8541C200.451 39.4318 203.933 39.32 204.829 41.8914C208.452 52.4066 210.82 63.8127 211.707 75.7825L204.594 78.4908C196.557 81.5423 192.411 90.0186 195.124 97.7684L203.775 122.326C204.346 123.934 205.179 125.418 206.225 126.736C195.512 161.922 171.18 188.034 141.779 193.843L141.837 193.624C143.987 185.438 149.617 178.415 157.347 174.249L161.493 172.021C169.171 167.904 173.881 160.154 173.881 151.823V147.803C173.881 141.652 171.27 135.743 166.663 131.383L164.667 129.494C160.06 125.135 153.815 122.665 147.314 122.665H125.252C119.57 122.665 113.939 121.26 108.974 118.596L97.9595 112.645C101.91 111.949 105.95 111.58 110.08 111.58H140.41C143.443 111.58 145.925 108.897 145.925 105.617C145.925 102.338 143.443 99.6547 140.41 99.6547H110.08C101.885 99.6547 93.9671 100.893 86.4695 103.216Z" fill="#2D82B7"/>
<path d="M73.9455 121.659C72.1961 122.71 70.4878 123.836 68.823 125.033C48.8323 139.456 35.6315 164.089 35.6315 192.076V198.039C35.6315 202.995 39.3194 206.983 43.9035 206.983C48.4876 206.983 52.1755 202.995 52.1755 198.039V192.076C52.1755 173.927 59.3101 157.604 70.7186 146.164C75.752 166.916 89.9539 183.654 108.36 191.01V185.584C108.36 180.256 105.186 175.412 100.17 173.039C95.1532 170.665 91.9795 165.822 91.9795 160.494V141.167C91.9795 132.497 85.9393 124.893 77.1349 122.519L73.9455 121.659Z" fill="#2D82B7"/>
<path d="M31.947 210.218C31.9911 210.26 32.0352 210.302 32.0794 210.344C32.1235 210.386 32.1677 210.427 32.2119 210.469C32.1235 210.386 32.0352 210.302 31.947 210.218Z" fill="#2D82B7"/>
<defs>
<linearGradient id="paint0_linear_6_33" x1="0" y1="125" x2="250" y2="125" gradientUnits="userSpaceOnUse">
<stop stop-color="#044632" stop-opacity="0.3"/>
<stop offset="1" stop-color="#071311"/>
</linearGradient>
<linearGradient id="paint1_linear_6_33" x1="0" y1="125" x2="250" y2="125" gradientUnits="userSpaceOnUse">
<stop stop-color="#044632" stop-opacity="0.3"/>
<stop offset="1" stop-color="#071311"/>
</linearGradient>
<linearGradient id="paint2_linear_6_33" x1="0" y1="125" x2="250" y2="125" gradientUnits="userSpaceOnUse">
<stop stop-color="#044632" stop-opacity="0.3"/>
<stop offset="1" stop-color="#071311"/>
</linearGradient>
</defs>
</svg>
